# xmcd
#
# Track frame offsets:
#	150
#	11378
#	26533
#	35946
#	42870
#	59230
#	74953
#	92024
#	94183
#	105393
#	121022
#	136272
#	153810
#	167181
#	181319
#
# Disc length: 2460 seconds
#
# Revision: 0
# Processed by: cddbd v1.5.2PL0 Copyright (c) Steve Scherf et al.
# Submitted via: EasyCDDAExtractor 2010.6.0.0
#
DISCID=c9099a0f
DTITLE=Various Artist - Wilburn Brothers Show
DYEAR=1900
DGENRE=
TTITLE0=Wilburn Brothers - Trouble's Back In Town-It's Another World
TTITLE1=Wilburn Brothers - Knoxville Girl
TTITLE2=Harold Morrison - Comedy Monologue
TTITLE3=Harold Morrison - Hunt The Coon Tonight
TTITLE4=Loretta Lynn - Home You're Tearing Down
TTITLE5=Ernest Tubb - There's Gonna Be Some Changes Made Around Here
TTITLE6=Wilburn Brothers - Legend Of The Big River Train
TTITLE7=Musical Break - Musical Break
TTITLE8=Wilburn Brothers - Bring Me Back My Heart
TTITLE9=Loretta Lynn - Look Who's Lonely
TTITLE10=Wilburn Brothers - All I Have For You Mom
TTITLE11=Ernest Tubb - You'll Never Get A Better Chance Than This
TTITLE12=Wilburn Brothers and Ernest Tubb - Hey Mr. Bluebird
TTITLE13=Wilburn Brothers - Making Plans
TTITLE14=Bill Turner - Closing
EXTD=
EXTT0=
EXTT1=
EXTT2=
EXTT3=
EXTT4=
EXTT5=
EXTT6=
EXTT7=
EXTT8=
EXTT9=
EXTT10=
EXTT11=
EXTT12=
EXTT13=
EXTT14=
PLAYORDER=
